HIERARCHY
ROOT Hips
{
	OFFSET -0.001795 -0.223333 0.028219
	CHANNELS 6 Xposition Yposition Zposition Zrotation Yrotation Xrotation 
	JOINT LeftUpLeg
	{
		OFFSET 0.069520 -0.091406 -0.006815
		CHANNELS 3 Zrotation Yrotation Xrotation
		JOINT LeftLeg
		{
			OFFSET 0.034277 -0.375199 -0.004496
			CHANNELS 3 Zrotation Yrotation Xrotation
			JOINT LeftFoot
			{
				OFFSET -0.013596 -0.397961 -0.043693
				CHANNELS 3 Zrotation Yrotation Xrotation
				JOINT LeftToe
				{
					OFFSET 0.026358 -0.055791 0.119288
					CHANNELS 3 Zrotation Yrotation Xrotation
					End Site
					{
						OFFSET 0.000000 0.000000 0.000000
					}
				}
			}
		}
	}
	JOINT RightUpLeg
	{
		OFFSET -0.067670 -0.090522 -0.004320
		CHANNELS 3 Zrotation Yrotation Xrotation
		JOINT RightLeg
		{
			OFFSET -0.038290 -0.382569 -0.008850
			CHANNELS 3 Zrotation Yrotation Xrotation
			JOINT RightFoot
			{
				OFFSET 0.015774 -0.398415 -0.042312
				CHANNELS 3 Zrotation Yrotation Xrotation
				JOINT RightToe
				{
					OFFSET -0.025372 -0.048144 0.123348
					CHANNELS 3 Zrotation Yrotation Xrotation
					End Site
					{
						OFFSET 0.000000 0.000000 0.000000
					}
				}
			}
		}
	}
	JOINT Spine
	{
		OFFSET -0.002533 0.108963 -0.026696
		CHANNELS 3 Zrotation Yrotation Xrotation
		JOINT Spine1
		{
			OFFSET 0.005487 0.135180 0.001092
			CHANNELS 3 Zrotation Yrotation Xrotation
			JOINT Spine2
			{
				OFFSET 0.001457 0.052922 0.025425
				CHANNELS 3 Zrotation Yrotation Xrotation
				JOINT Neck
				{
					OFFSET -0.002778 0.213870 -0.042857
					CHANNELS 3 Zrotation Yrotation Xrotation
					JOINT Head
					{
						OFFSET 0.005152 0.064970 0.051349
						CHANNELS 3 Zrotation Yrotation Xrotation
						End Site
						{
							OFFSET 0.000000 0.000000 0.000000
						}
					}
				}
				JOINT LeftShoulder
				{
					OFFSET 0.078845 0.121749 -0.034090
					CHANNELS 3 Zrotation Yrotation Xrotation
					JOINT LeftArm
					{
						OFFSET 0.090977 0.030469 -0.008868
						CHANNELS 3 Zrotation Yrotation Xrotation
						JOINT LeftForeArm
						{
							OFFSET 0.259612 -0.012772 -0.027456
							CHANNELS 3 Zrotation Yrotation Xrotation
							JOINT LeftHand
							{
								OFFSET 0.249234 0.008986 -0.001171
								CHANNELS 3 Zrotation Yrotation Xrotation
								End Site
								{
									OFFSET 0.000000 0.000000 0.000000
								}
							}
						}
					}
				}
				JOINT RightShoulder
				{
					OFFSET -0.081759 0.118833 -0.038615
					CHANNELS 3 Zrotation Yrotation Xrotation
					JOINT RightArm
					{
						OFFSET -0.096012 0.032551 -0.009143
						CHANNELS 3 Zrotation Yrotation Xrotation
						JOINT RightForeArm
						{
							OFFSET -0.253742 -0.013329 -0.021401
							CHANNELS 3 Zrotation Yrotation Xrotation
							JOINT RightHand
							{
								OFFSET -0.255298 0.007772 -0.005559
								CHANNELS 3 Zrotation Yrotation Xrotation
								End Site
								{
									OFFSET 0.000000 0.000000 0.000000
								}
							}
						}
					}
				}
			}
		}
	}
}
MOTION
Frames: 14
Frame Time: 0.050000
-1.470587 0.967340 -1.356694 0.474786 -49.539559 4.743573 5.203908 0.665371 -0.326765 -1.347802 0.385802 -4.488814 7.210149 9.883550 18.938605 0.000000 0.000000 0.000000 -4.003424 0.856235 -6.036363 2.599607 0.208860 -2.180154 2.767843 -7.531209 14.573074 0.000000 0.000000 0.000000 7.889851 -0.625487 13.070835 -3.901652 0.401599 -21.389859 -2.201438 3.071415 28.937455 13.388111 -9.032080 -30.402884 0.000000 0.000000 0.000000 -22.273161 -22.444650 21.023245 -49.741317 -30.575932 3.529239 0.173780 -17.439278 0.287316 0.000000 0.000000 0.000000 27.232936 14.823186 -6.033092 49.356562 11.133907 1.431266 -2.912955 18.683154 -0.700256 0.000000 0.000000 0.000000 
-1.473347 0.967408 -1.364543 0.829438 -49.413430 5.388036 5.470923 0.640946 -1.410131 -1.366288 0.391014 -4.710478 7.199097 9.693810 19.608948 0.000000 0.000000 0.000000 -3.973428 0.928856 -7.063407 2.691069 0.231124 -2.815024 2.979335 -7.674854 15.192510 0.000000 0.000000 0.000000 8.368384 -0.619814 15.141240 -3.931189 0.400580 -21.053425 -2.402956 2.480711 28.628089 13.614158 -9.024020 -30.787823 0.000000 0.000000 0.000000 -21.390585 -24.964030 21.992329 -51.743763 -35.284262 6.678667 2.876435 -14.276746 -0.180347 0.000000 0.000000 0.000000 26.202991 17.093328 -4.358677 49.153991 16.482029 3.395085 -5.792829 15.366820 -0.885335 0.000000 0.000000 0.000000 
-1.476246 0.967289 -1.371991 1.172539 -49.265426 5.916493 5.715598 0.635335 -2.362226 -1.428461 0.403496 -4.887605 7.117956 9.460478 20.083438 0.000000 0.000000 0.000000 -3.954814 1.004378 -7.982281 2.786460 0.253454 -3.333068 3.132466 -7.846932 15.750736 0.000000 0.000000 0.000000 8.847645 -0.589814 17.158835 -3.976640 0.409408 -20.729347 -2.634726 1.948152 28.395381 13.858119 -8.997596 -31.272686 0.000000 0.000000 0.000000 -20.241131 -27.331325 22.655310 -54.238195 -40.154241 10.516924 5.362936 -10.450513 -0.406124 0.000000 0.000000 0.000000 24.965200 19.044772 -2.788351 49.368232 21.808000 5.229187 -8.194438 11.699399 -0.875164 0.000000 0.000000 0.000000 
-1.479348 0.967258 -1.378706 1.483999 -49.168403 6.384061 5.967957 0.647602 -3.267152 -1.528461 0.419788 -4.926333 7.056215 9.294051 20.404036 0.000000 0.000000 0.000000 -3.931428 1.082629 -8.839178 2.892586 0.273388 -3.682710 3.248952 -7.974123 16.170738 0.000000 0.000000 0.000000 9.278081 -0.542765 18.981988 -4.014166 0.417833 -20.417864 -2.892505 1.465012 28.202707 14.098041 -8.961522 -31.803409 0.000000 0.000000 0.000000 -18.993669 -29.365325 23.035470 -56.864928 -44.644274 14.656228 7.316332 -6.640910 -0.383876 0.000000 0.000000 0.000000 23.762099 20.633667 -1.473348 49.634154 26.627957 6.842806 -9.778298 8.260187 -0.723793 0.000000 0.000000 0.000000 
-1.482465 0.967286 -1.384620 1.778229 -49.112424 6.806161 6.191409 0.669337 -4.143895 -1.624220 0.433158 -4.858225 6.995279 9.145756 20.635987 0.000000 0.000000 0.000000 -3.897008 1.159627 -9.615105 2.987266 0.289872 -3.920255 3.336056 -8.057352 16.463366 0.000000 0.000000 0.000000 9.640761 -0.485478 20.571568 -4.014761 0.420817 -20.171643 -3.153207 1.082214 27.996766 14.314452 -8.932954 -32.228118 0.000000 0.000000 0.000000 -17.898573 -30.962199 23.234910 -59.271201 -48.380519 18.568093 8.739052 -3.435211 -0.225778 0.000000 0.000000 0.000000 22.765589 21.839355 -0.458804 49.789831 30.601450 8.151234 -10.758490 5.535544 -0.551794 0.000000 0.000000 0.000000 
-1.485477 0.967237 -1.389647 2.044721 -49.096287 7.162328 6.390297 0.699713 -4.906094 -1.698666 0.442597 -4.759278 6.926118 8.990471 20.849897 0.000000 0.000000 0.000000 -3.859326 1.229950 -10.273443 3.090600 0.304235 -4.061153 3.421392 -8.085364 16.670376 0.000000 0.000000 0.000000 9.921852 -0.425388 21.887039 -3.990421 0.417546 -20.026445 -3.372372 0.818519 27.800518 14.512120 -8.915753 -32.553198 0.000000 0.000000 0.000000 -16.974117 -32.116261 23.277781 -61.369996 -51.142911 21.883286 9.821831 -1.171221 -0.052071 0.000000 0.000000 0.000000 22.041770 22.670698 0.258142 49.846362 33.614197 9.132227 -11.391824 3.651894 -0.419750 0.000000 0.000000 0.000000 
-1.488369 0.967212 -1.393729 2.283598 -49.100905 7.424478 6.556289 0.732721 -5.517505 -1.734059 0.445634 -4.663403 6.840965 8.809473 21.108015 0.000000 0.000000 0.000000 -3.818291 1.285479 -10.768984 3.191221 0.316687 -4.150475 3.513185 -8.107228 16.887068 0.000000 0.000000 0.000000 10.132168 -0.365567 22.954803 -3.954726 0.413002 -19.978017 -3.543518 0.646066 27.647712 14.678611 -8.913034 -32.768588 0.000000 0.000000 0.000000 -16.269553 -32.875843 23.232920 -63.059621 -53.014063 24.424844 10.676722 0.200992 0.079733 0.000000 0.000000 0.000000 21.557981 23.196811 0.731449 49.881304 35.746655 9.827507 -11.824426 2.521978 -0.337896 0.000000 0.000000 0.000000 
-1.491160 0.967220 -1.396852 2.500133 -49.118349 7.579458 6.697158 0.764595 -5.941758 -1.749526 0.446098 -4.594248 6.728742 8.594122 21.385515 0.000000 0.000000 0.000000 -3.778997 1.324024 -11.104918 3.290443 0.326744 -4.184484 3.596793 -8.119287 17.077158 0.000000 0.000000 0.000000 10.269410 -0.311837 23.756243 -3.911282 0.405804 -19.971577 -3.668798 0.540098 27.554141 14.786188 -8.905925 -32.921315 0.000000 0.000000 0.000000 -15.765199 -33.316121 23.136456 -64.258343 -54.177039 26.167554 11.337661 0.875737 0.155682 0.000000 0.000000 0.000000 21.275923 23.486777 1.016709 49.924112 37.121569 10.280723 -12.133240 1.982761 -0.299708 0.000000 0.000000 0.000000 
-1.493832 0.967226 -1.399070 2.699459 -49.108340 7.621823 6.797077 0.787542 -6.193379 -1.745764 0.443831 -4.548954 6.596893 8.369629 21.610098 0.000000 0.000000 0.000000 -3.742384 1.340829 -11.260098 3.356298 0.332674 -4.201501 3.664470 -8.095230 17.188119 0.000000 0.000000 0.000000 10.330647 -0.270692 24.278247 -3.854894 0.394807 -19.989319 -3.749564 0.472227 27.519635 14.829740 -8.896532 -33.004557 0.000000 0.000000 0.000000 -15.493016 -33.455763 23.021738 -64.896018 -54.677500 27.020027 11.856843 0.808224 0.155109 0.000000 0.000000 0.000000 21.174122 23.551926 1.128380 50.005505 37.813316 10.521022 -12.388449 1.967772 -0.305462 0.000000 0.000000 0.000000 
-1.496359 0.967225 -1.400498 2.875081 -49.075599 7.547099 6.858746 0.799278 -6.253017 -1.734181 0.441062 -4.535287 6.475273 8.182943 21.744625 0.000000 0.000000 0.000000 -3.708438 1.333924 -11.228216 3.390749 0.334234 -4.194231 3.699332 -8.033474 17.180329 0.000000 0.000000 0.000000 10.328235 -0.243565 24.544038 -3.790845 0.381257 -20.020690 -3.776399 0.447795 27.533954 14.784396 -8.865424 -33.046444 0.000000 0.000000 0.000000 -15.401050 -33.372190 22.897984 -65.090171 -54.634028 27.122660 12.248564 0.148529 0.086919 0.000000 0.000000 0.000000 21.170400 23.414655 1.102020 50.219120 37.936573 10.594980 -12.651213 2.373712 -0.352237 0.000000 0.000000 0.000000 
-1.498690 0.967245 -1.401290 3.033957 -49.042881 7.367098 6.883342 0.800863 -6.157449 -1.726871 0.439631 -4.529785 6.372203 8.038925 21.796903 0.000000 0.000000 0.000000 -3.689791 1.308428 -11.041586 3.403959 0.333103 -4.171724 3.723534 -7.926947 17.087896 0.000000 0.000000 0.000000 10.277780 -0.229022 24.591776 -3.747265 0.371702 -20.052486 -3.770176 0.478879 27.587728 14.680236 -8.810955 -33.099668 0.000000 0.000000 0.000000 -15.435117 -33.114003 22.757603 -65.045868 -54.196439 26.726651 12.538107 -0.902337 -0.026541 0.000000 0.000000 0.000000 21.245322 23.133392 0.974251 50.555808 37.629239 10.547438 -12.923086 3.052193 -0.430186 0.000000 0.000000 0.000000 
-1.500785 0.967210 -1.401583 3.171937 -48.971321 7.120560 6.879959 0.794125 -5.956015 -1.712691 0.437130 -4.528062 6.261704 7.901343 21.776137 0.000000 0.000000 0.000000 -3.695334 1.270070 -10.735194 3.425014 0.332585 -4.171752 3.741454 -7.807920 16.977029 0.000000 0.000000 0.000000 10.208316 -0.234143 24.433991 -3.724201 0.367496 -20.086716 -3.742167 0.530015 27.650975 14.504168 -8.730607 -33.143631 0.000000 0.000000 0.000000 -15.551232 -32.746954 22.611111 -64.869548 -53.411241 25.954022 12.703086 -2.328027 -0.181845 0.000000 0.000000 0.000000 21.411657 22.734109 0.750385 50.985679 36.951254 10.396038 -13.217084 3.984253 -0.542536 0.000000 0.000000 0.000000 
-1.502637 0.967117 -1.401469 3.286805 -48.874550 6.828792 6.855882 0.782200 -5.668826 -1.690692 0.433984 -4.567383 6.147797 7.769294 21.711888 0.000000 0.000000 0.000000 -3.715698 1.222974 -10.336646 3.458534 0.333501 -4.195567 3.764330 -7.663589 16.848720 0.000000 0.000000 0.000000 10.113917 -0.252467 24.113009 -3.705451 0.364969 -20.138909 -3.702241 0.597303 27.710446 14.288511 -8.630768 -33.204479 0.000000 0.000000 0.000000 -15.745263 -32.259934 22.451660 -64.573740 -52.300899 24.842638 12.720050 -4.142137 -0.373228 0.000000 0.000000 0.000000 21.653386 22.225349 0.436598 51.482246 35.929539 10.134752 -13.509233 5.206577 -0.696772 0.000000 0.000000 0.000000 
-1.504282 0.967039 -1.400989 3.375641 -48.744717 6.496704 6.803433 0.764264 -5.297584 -1.641807 0.426617 -4.634535 6.036932 7.649216 21.632300 0.000000 0.000000 0.000000 -3.733482 1.168190 -9.855512 3.482558 0.334745 -4.269962 3.794804 -7.520519 16.750069 0.000000 0.000000 0.000000 10.007051 -0.285131 23.629753 -3.703314 0.367806 -20.200987 -3.642031 0.666116 27.783766 14.009390 -8.501511 -33.291056 0.000000 0.000000 0.000000 -15.988628 -31.643531 22.257677 -64.202236 -50.883224 23.454594 12.564128 -6.333631 -0.586336 0.000000 0.000000 0.000000 21.925046 21.595281 0.034474 52.049914 34.586200 9.752459 -13.774639 6.748683 -0.900774 0.000000 0.000000 0.000000 
